<?xml version="1.0" standalone="no"?>
<!DOCTYPE svg PUBLIC "-//W3C//DTD SVG 20010904//EN"
 "http://www.w3.org/TR/2001/REC-SVG-20010904/DTD/svg10.dtd">
<svg version="1.0" xmlns="http://www.w3.org/2000/svg"
 width="500.000000pt" height="500.000000pt" viewBox="0 0 500.000000 500.000000"
 preserveAspectRatio="xMidYMid meet">

<g transform="translate(0.000000,500.000000) scale(0.100000,-0.100000)"
fill="#000000" stroke="none">
<path d="M1969 4927 c-63 -42 -69 -66 -69 -303 l0 -211 -112 -37 c-62 -20
-165 -62 -229 -94 l-117 -57 -153 148 c-95 91 -167 151 -187 158 -77 25 -85
20 -390 -284 -307 -306 -314 -316 -293 -394 9 -34 37 -66 163 -187 l151 -146
-56 -113 c-30 -61 -73 -165 -94 -229 l-38 -118 -207 0 c-235 0 -273 -8 -308
-65 -19 -31 -20 -48 -20 -516 0 -520 0 -513 53 -553 26 -19 45 -21 254 -26
l226 -5 27 -85 c36 -112 62 -176 116 -284 l45 -89 -154 -156 c-238 -239 -244
-208 126 -573 300 -296 316 -308 394 -294 32 6 62 31 192 161 l154 153 106
-53 c58 -29 160 -71 226 -94 l120 -41 5 -224 c8 -342 -39 -316 580 -316 619 0
572 -26 580 316 l5 225 120 40 c65 22 169 65 229 95 l110 55 155 -155 c131
-130 162 -155 194 -161 79 -15 93 -5 389 292 364 366 358 335 121 574 l-154
156 54 109 c30 60 73 163 96 229 l41 120 223 5 c242 5 256 9 294 67 16 25 18
68 21 495 3 450 2 470 -17 514 -16 35 -29 49 -63 64 -38 17 -66 20 -250 20
l-206 0 -32 97 c-35 106 -93 243 -134 313 l-25 45 149 150 c82 83 153 163 159
178 15 39 14 93 -3 125 -8 15 -135 147 -283 293 -289 288 -306 300 -380 280
-30 -8 -71 -44 -188 -161 -82 -82 -154 -150 -159 -150 -5 0 -59 24 -120 54
-61 30 -161 71 -223 91 l-111 37 -4 217 c-3 196 -5 219 -23 251 -42 71 -34 70
-566 70 l-476 0 -34 -23z m811 -469 c0 -271 -1 -270 195 -322 139 -37 281 -96
410 -170 133 -77 143 -80 197 -66 34 10 68 38 185 153 l144 141 147 -147 147
-147 -147 -147 c-91 -92 -149 -159 -153 -176 -12 -46 1 -94 43 -160 87 -137
154 -296 197 -467 44 -174 55 -180 325 -180 l200 0 0 -295 0 -295 -202 0
c-272 0 -277 -3 -328 -197 -43 -166 -107 -315 -191 -448 -82 -131 -75 -151
107 -335 l144 -146 -148 -147 -147 -147 -140 140 c-146 146 -178 167 -241 157
-19 -3 -72 -29 -119 -57 -145 -88 -299 -151 -473 -195 -89 -22 -110 -34 -135
-74 -20 -34 -22 -50 -25 -238 l-4 -203 -289 0 -289 0 0 183 c0 100 -5 198 -10
218 -17 61 -57 88 -176 121 -143 39 -291 97 -389 154 -185 107 -190 108 -259
74 -23 -11 -99 -78 -171 -150 l-130 -130 -147 147 -148 148 147 148 148 147 0
63 c0 54 -5 69 -36 117 -85 129 -166 320 -204 480 -23 96 -38 126 -78 150 -29
18 -51 20 -239 20 l-208 0 0 295 0 295 195 0 c213 0 245 6 282 54 12 14 27 50
33 79 40 169 120 366 205 503 90 144 84 167 -98 351 l-141 144 147 147 147
147 147 -147 c191 -189 194 -190 348 -98 157 94 295 152 450 190 179 44 184
54 185 328 l0 192 295 0 295 0 0 -202z"/>
<path d="M2350 3720 c-466 -57 -854 -350 -1025 -772 -139 -345 -122 -708 48
-1042 179 -352 518 -597 915 -662 127 -21 352 -14 467 15 238 59 438 168 598
326 180 179 292 380 350 629 29 124 31 381 4 506 -109 507 -496 890 -995 984
-103 19 -270 27 -362 16z m310 -302 c118 -20 253 -75 361 -149 184 -125 317
-308 385 -534 25 -82 28 -105 28 -255 1 -140 -2 -177 -21 -246 -97 -354 -383
-625 -735 -698 -100 -21 -295 -21 -396 0 -350 71 -646 357 -734 711 -31 125
-31 331 0 458 49 195 175 392 333 518 220 177 489 244 779 195z"/>
</g>
</svg>
