<?xml version="1.0" encoding="utf-8"?>
<!-- Svg Vector Icons : http://www.onlinewebfonts.com/icon -->
<!DOCTYPE svg PUBLIC "-//W3C//DTD SVG 1.1//EN" "http://www.w3.org/Graphics/SVG/1.1/DTD/svg11.dtd">
<svg version="1.1" xmlns="http://www.w3.org/2000/svg" xmlns:xlink="http://www.w3.org/1999/xlink" x="0px" y="0px" viewBox="0 0 256 256" enable-background="new 0 0 256 256" xml:space="preserve">
<metadata> Svg Vector Icons : http://www.onlinewebfonts.com/icon </metadata>
<g><g><g><path fill="#000000" d="M117.9,10.8c-2.1,1-3.7,3.1-4.3,5.5c-0.4,1.6-0.8,2-1.5,2c-0.5,0-3.3,0.5-6.2,1.1l-5.3,1.1l-1.6-1.8c-1.8-1.9-4.3-3.2-6.5-3.2c-1.6,0-14.8,5.2-16.8,6.6c-2,1.4-3.1,4.1-3.1,7.2v2.8L69.4,34c-1.8,1.1-4.3,2.8-5.7,3.8L61,39.7l-2-1c-2.5-1.3-5.6-1.3-7.9-0.2c-2.3,1.2-11.9,10.8-12.7,12.9c-1,2.4-0.9,5.6,0.2,7.8l1,1.9l-3.8,5.6l-3.8,5.6l-2.6,0c-3.2,0-5.9,1.3-7.3,3.3c-0.6,0.8-2.2,4.4-3.7,8.1c-3.7,9.1-3.6,12.2,0.6,15.5l1.7,1.4l-0.9,4.5c-0.5,2.5-1.1,5.4-1.2,6.3c-0.2,1.3-0.6,1.8-1.3,1.8c-1.2,0-4.1,1.5-5.1,2.6c-1.9,2.1-2.2,4-2.2,12.3c0,6.8,0.1,8.3,0.9,9.9c1.1,2.3,3.5,4.3,5.8,4.7c1.3,0.2,1.7,0.5,1.9,1.3c0.1,0.5,0.6,3.3,1.2,6.2l1.1,5.3l-1.7,1.4c-4.1,3.4-4.3,6.8-0.6,15.5c3.5,8.2,3.8,8.8,6,10.3c1.7,1.1,2.4,1.3,5.1,1.2c1.7,0,3.1,0.1,3.1,0.3c0,0.2,1.6,2.7,3.5,5.6l3.5,5.3l-1,2c-1.2,2.3-1.3,5.5-0.3,7.8c0.9,2.1,9.5,10.9,12.2,12.5c2.7,1.6,5.8,1.6,8.5,0.2l2-1.1l5.8,3.9l5.8,3.8l-0.1,2.6c-0.1,3.1,1,5.7,3.1,7.2c2.1,1.5,15.1,6.6,16.8,6.6c2.3,0,5.1-1.5,6.8-3.4l1.4-1.7l4.6,0.9c2.5,0.5,5.3,1,6.2,1.2c1.5,0.3,1.7,0.5,2.2,2.3c0.6,2.5,2.3,4.5,4.4,5.6c2.3,1.1,17.7,1.1,20,0c2.1-1,3.8-3.1,4.4-5.6c0.5-1.9,0.7-2,2.2-2.3c0.9-0.2,3.7-0.7,6.2-1.2l4.6-0.9l1.4,1.7c1.6,1.9,4.5,3.4,6.7,3.4c1.9,0,15-5.2,17.1-6.8c1.9-1.4,3-4.4,2.8-7.4l-0.1-2.3l5.8-3.8l5.7-3.8l1.9,1c2.6,1.5,5.9,1.4,8.6-0.1c2.8-1.6,11.4-10.5,12.3-12.5c1-2.4,0.9-5.5-0.3-7.8l-1-2l3.8-5.7l3.8-5.7l1.7,0.3c2.3,0.4,5-0.4,6.8-1.9c1.2-1,2.2-2.9,4.3-8c3.3-8,3.7-9.7,2.9-12.8c-0.4-1.7-1.1-2.7-2.5-4l-1.9-1.8l1-5.2c0.6-2.9,1.1-5.7,1.2-6.2c0.1-0.7,0.6-1.1,1.9-1.3c2.3-0.4,4.7-2.4,5.8-4.7c0.7-1.6,0.9-3.1,0.9-9.9c0-8.3-0.3-10.2-2.2-12.3c-1-1.2-3.9-2.6-5.1-2.6c-0.7,0-1-0.4-1.3-1.8c-0.1-0.9-0.7-3.7-1.2-6.3l-0.9-4.5l1.7-1.4c4.1-3.3,4.2-6.4,0.5-15.5c-1.5-3.6-3.1-7.2-3.7-8.1c-1.4-2.1-4.1-3.3-7.3-3.4h-2.6l-3.7-5.6l-3.7-5.6l0.9-2c1.1-2.4,1.2-5.4,0.3-7.5c-0.3-0.8-3.3-4.1-6.6-7.4c-4.7-4.6-6.4-5.9-7.9-6.3c-2.3-0.6-4.5-0.3-6.5,1l-1.5,0.9l-5.8-3.8l-5.8-3.8v-2.5c0-3.1-1.3-6-3.1-7.3c-2.1-1.5-15.3-6.6-16.9-6.6c-2.2,0-5.1,1.5-6.7,3.3l-1.3,1.6l-5.3-1.1c-2.9-0.6-5.8-1.1-6.3-1.1c-0.8,0-1.1-0.4-1.5-2c-0.6-2.5-2.3-4.5-4.4-5.6C135.7,9.7,120.1,9.7,117.9,10.8z M138.6,47.7c18.7,2.5,34.8,10.7,48.2,24.7c10.4,10.8,17.5,24.6,20.8,39.7c1.4,6.6,1.8,20.3,0.7,27.3c-3.9,26.8-20.9,49.8-45.3,61.5c-22.3,10.7-47.8,10.7-70,0C64.8,187.3,47,159,47,127.8c0.1-40.7,30.5-75,71.3-80.2C123.1,46.9,133.4,47,138.6,47.7z"/><path fill="#000000" d="M121.3,54.2c-11.3,1.6-18.3,3.7-26,7.5c-7.6,3.8-12.8,7.6-19.2,14C65.4,86.4,59,98.1,55.7,113.4c-0.9,4-1,6.1-1,14.4c0,8.5,0.1,10.4,1.1,14.8c5.6,26.6,24.4,47.7,49.6,55.7c9.6,3.1,19.4,4.2,28.3,3.4c11-1,17.8-3,27.4-7.7c17-8.4,30.7-24.1,36.8-42.2c2.6-7.8,3.3-12,3.6-21.6c0.2-7.5,0.1-9.6-0.7-14.5c-5.2-30.4-28.2-54.1-58.6-60.2C137.7,54.4,124.7,53.7,121.3,54.2z M118,77.5c2.2,7.8,4.6,15.4,5.3,16.8c1.4,2.9,3.8,4.8,5.3,4.3c1.5-0.4,3.8-3.2,4.9-5.9c0.8-2.1,6.5-21.6,7.9-27.3c0.6-2.1,0.6-2.2,1.8-1.9c3.5,0.8,11.1,3.6,14.7,5.5c6.8,3.4,6.9,1.5-1.1,15.9c-8.4,15.1-9.8,18.7-8.4,21.5c0.8,1.4,1.3,1.7,3.5,1.7c3.1,0,5.5-1.1,19-8.6l12.8-7.2l0.8,1.1c2.7,3.6,9,19.3,8,20.2c-0.2,0.2-6.4,2.1-13.8,4.2c-7.4,2.1-14.6,4.3-16.1,5c-4.5,2-6.1,5-4.1,7.6c1.7,2.1,5.4,3.6,19.5,7.5c7.8,2.2,14.3,4.2,14.5,4.3c1,0.9-5.4,17.1-8.1,20.5c-0.6,0.8-1.3,0.4-11.5-5.3c-15.8-8.9-18.1-9.9-22.1-9.7c-1.6,0.1-2.9,1.7-2.9,3.5c0,3.1,1.9,7.2,8.9,19.8c6.7,11.9,6.9,12.5,6.1,13.2c-3.2,2.3-15.9,7.5-19.6,8.1c-1.3,0.2-1.1,1-5.8-16.1c-3.5-12.5-4.9-16.1-7.1-18c-1.9-1.6-2.8-1.6-4.6-0.1c-2.2,1.9-3.5,5.1-7.5,19.2c-2.1,7.3-3.8,13.6-4,14c-0.4,1.2-1.8,1.1-6.8-0.6c-4.2-1.4-12.7-5.3-14.4-6.6c-0.8-0.6-0.5-1.4,6.2-13.2c7.1-12.7,8.8-16.5,8.8-19.4c0-2.7-1-3.7-3.7-3.7c-3.4,0-5.6,1-19.3,8.6c-7,3.9-12.9,7.1-12.9,7.1c-0.3,0-3.8-6.7-5.3-10.2c-2-4.6-3.8-10.7-3.3-11.2c0.2-0.2,6.4-2,13.7-4.1c14.6-4.1,18.2-5.5,19.9-7.5c1.8-2.1,1.6-4.1-0.7-6.1c-2.5-2.1-3.5-2.5-19.6-7l-13.5-3.8l0.1-1.3c0.3-2.3,2.9-9.5,5.2-14c3.6-7.1,1.6-7.2,16.1,0.9c13.2,7.4,16.4,8.8,19.5,8.8c3.5,0,4.5-2.6,3-7.7c-0.4-1.3-3.9-8.1-7.9-15.2c-6.4-11.6-7.1-13-6.4-13.5c1.3-1,7.7-4.2,10.4-5.2c2.2-0.9,9.4-3.1,10.2-3.2C113.9,63.2,115.8,69.6,118,77.5z"/><path fill="#000000" d="M124.1,113.8c-4.3,1.5-7.8,4.5-9.5,8.4c-1.3,3-1.4,7.4-0.2,10.9c1.2,3.5,5.1,7.4,8.6,8.6c3.4,1.2,7.9,1.1,10.8-0.2c3-1.3,6.5-4.8,7.8-7.6c2.4-5.3,1.1-12.2-3.1-16.3C134.9,114.1,128.4,112.4,124.1,113.8z"/></g></g></g>
</svg>